<svg id="Layer_1" data-name="Layer 1" xmlns="http://www.w3.org/2000/svg" xmlns:xlink="http://www.w3.org/1999/xlink" viewBox="0 0 99.4 99.4"><defs><style>.cls-1{fill:#92b4e3;}.cls-2{fill:url(#linear-gradient);}.cls-3{fill:#fff;}</style><linearGradient id="linear-gradient" x1="59.62" y1="64.5" x2="114.2" y2="64.5" gradientUnits="userSpaceOnUse"><stop offset="0" stop-color="#7ba4dd"/><stop offset="1" stop-color="#628dd6"/></linearGradient></defs><circle class="cls-1" cx="49.7" cy="49.67" r="48.69"/><path class="cls-1" d="M64.5,14.8a49.7,49.7,0,1,0,49.7,49.7A49.7,49.7,0,0,0,64.5,14.8Zm0,97.4a47.7,47.7,0,1,1,47.7-47.7A47.69,47.69,0,0,1,64.5,112.2Z" transform="translate(-14.8 -14.8)"/><path class="cls-2" d="M64.5,14.8c-1.65,0-3.27.08-4.88.24a49.7,49.7,0,0,1,0,98.92c1.61.16,3.23.24,4.88.24a49.7,49.7,0,0,0,0-99.4Z" transform="translate(-14.8 -14.8)"/><path class="cls-3" d="M92.05,64.45H40.88v-22H81v5.95H59.19v8l.42,0H92.05Z" transform="translate(-14.8 -14.8)"/><path class="cls-3" d="M40.85,93.66V67.49H59.12a3,3,0,0,1,0,.42v25.6s0,.1,0,.15Z" transform="translate(-14.8 -14.8)"/><rect class="cls-3" x="64.95" y="52.7" width="10.98" height="6.41"/></svg>